<?xml version="1.0" encoding="UTF-8" standalone="no"?>
<!DOCTYPE svg PUBLIC "-//W3C//DTD SVG 1.1//EN" "http://www.w3.org/Graphics/SVG/1.1/DTD/svg11.dtd">
<svg width="100%" height="100%" viewBox="0 0 256 256" version="1.1" xmlns="http://www.w3.org/2000/svg" xmlns:xlink="http://www.w3.org/1999/xlink" xml:space="preserve" xmlns:serif="http://www.serif.com/" style="fill-rule:evenodd;clip-rule:evenodd;stroke-linejoin:round;stroke-miterlimit:2;">
    <g transform="matrix(0.249228,0,0,0.249228,-31.5058,-31.5058)">
        <path d="M322.524,282.4C300.364,282.4 282.4,300.364 282.4,322.524C282.4,332.648 282.4,343.088 282.4,351.738C282.4,357.059 280.287,362.162 276.524,365.924C272.762,369.687 267.659,371.8 262.338,371.8L233.124,371.8C222.483,371.8 212.277,376.028 204.752,383.552C197.227,391.077 193,401.283 193,411.924C193,511.412 193,768.589 193,868.076C193,878.718 197.227,888.924 204.752,896.448C212.277,903.973 222.483,908.2 233.124,908.2C243.248,908.2 253.688,908.2 262.338,908.2C273.418,908.2 282.4,917.182 282.4,928.262C282.4,936.912 282.4,947.353 282.4,957.476C282.4,979.636 300.364,997.6 322.524,997.6L351.738,997.6C357.059,997.6 362.162,999.714 365.924,1003.48C369.687,1007.24 371.8,1012.34 371.8,1017.66C371.8,1026.31 371.8,1036.75 371.8,1046.88C371.8,1069.04 389.764,1087 411.924,1087C511.411,1087 768.587,1087 868.074,1087C878.715,1087 888.921,1082.77 896.446,1075.25C903.97,1067.72 908.198,1057.52 908.198,1046.88C908.198,1036.75 908.198,1026.31 908.198,1017.66C908.198,1006.58 917.18,997.6 928.26,997.6C936.91,997.6 947.351,997.6 957.476,997.6C979.636,997.6 997.6,979.636 997.6,957.476C997.6,947.352 997.6,936.912 997.6,928.262C997.6,922.941 999.714,917.839 1003.48,914.076C1007.24,910.314 1012.34,908.2 1017.66,908.2C1026.31,908.2 1036.75,908.2 1046.88,908.2C1057.52,908.2 1067.72,903.973 1075.25,896.448C1082.77,888.924 1087,878.718 1087,868.076C1087,768.589 1087,511.412 1087,411.924C1087,389.764 1069.04,371.8 1046.88,371.8L1017.66,371.8C1006.58,371.8 997.6,362.818 997.6,351.738C997.6,343.088 997.6,332.648 997.6,322.524C997.6,300.364 979.636,282.4 957.476,282.4C947.352,282.4 936.912,282.4 928.262,282.4C917.182,282.4 908.2,273.418 908.2,262.339C908.199,253.688 908.199,243.247 908.199,233.123C908.198,210.963 890.234,193 868.075,193C768.589,193 511.412,193 411.924,193C401.283,193 391.077,197.227 383.552,204.752C376.028,212.277 371.8,222.482 371.8,233.124C371.8,243.248 371.8,253.688 371.8,262.338C371.8,273.418 362.818,282.4 351.738,282.4C343.088,282.4 332.648,282.4 322.524,282.4Z" style="fill:rgb(33,37,41);"/>
    </g>
    <g transform="matrix(0.219342,0,0,0.219342,-12.3786,-12.3786)">
        <path d="M461.2,640L461.2,461.2L505.9,461.2L505.9,416.5L550.6,416.5L550.6,371.8L729.4,371.8L729.4,416.5L774.1,416.5L774.1,461.2L818.8,461.2L818.8,640L729.4,640.001L729.4,505.9L684.7,505.9L684.7,461.2L595.3,461.2L595.3,505.9L550.6,505.9L550.6,640L461.2,640Z" style="fill:rgb(222,226,230);"/>
    </g>
    <g transform="matrix(0.219342,0,0,0.233209,-12.3786,-24.9726)">
        <path d="M472.778,640.001C457.853,640.001 443.538,645.577 432.984,655.504C422.43,665.43 416.501,678.894 416.501,692.932C416.501,739.935 416.501,808.266 416.501,855.269C416.501,869.307 422.43,882.77 432.984,892.697C443.538,902.624 457.853,908.2 472.778,908.2C558.632,908.2 721.37,908.2 807.223,908.2C822.149,908.2 836.463,902.624 847.017,892.697C857.571,882.77 863.501,869.307 863.501,855.269C863.501,808.266 863.501,739.935 863.501,692.932C863.501,663.699 838.304,640.001 807.223,640.001C721.37,640.001 558.632,640.001 472.778,640.001Z" style="fill:rgb(241,196,15);"/>
    </g>
</svg>
