<svg width="256" height="256" viewBox="0 0 256 256" fill="none" xmlns="http://www.w3.org/2000/svg">
<rect x="17" y="17" width="223" height="223" rx="111.5" fill="#1E1E1E"/>
<path fill-rule="evenodd" clip-rule="evenodd" d="M88.8044 128.828V89.6092H98.6089V79.8046H108.414V70H147.632V79.8046H157.436V89.6092H167.241V128.828L147.632 128.828V99.4138H137.827V89.6092H118.218V99.4138H108.414V128.828H88.8044Z" fill="#DEE2E6"/>
<path fill-rule="evenodd" clip-rule="evenodd" d="M91.3439 125.109C88.0702 125.109 84.9304 126.409 82.6154 128.724C80.3005 131.039 79 134.179 79 137.453C79 148.414 79 164.35 79 175.311C79 178.585 80.3005 181.725 82.6154 184.04C84.9304 186.355 88.0702 187.655 91.3439 187.655C110.175 187.655 145.871 187.655 164.702 187.655C167.976 187.655 171.115 186.355 173.43 184.04C175.745 181.725 177.046 178.585 177.046 175.311C177.046 164.35 177.046 148.414 177.046 137.453C177.046 130.635 171.519 125.109 164.702 125.109C145.871 125.109 110.175 125.109 91.3439 125.109Z" fill="#F1C40F"/>
</svg>
