<?xml version="1.0" encoding="UTF-8"?>
<svg width="96px" height="96px" viewBox="0 0 96 96" version="1.1" xmlns="http://www.w3.org/2000/svg" xmlns:xlink="http://www.w3.org/1999/xlink">
    <!-- Generator: Sketch 59.1 (86144) - https://sketch.com -->
    <title>icon</title>
    <desc>Created with Sketch.</desc>
    <g id="icon" stroke="none" stroke-width="1" fill="none" fill-rule="evenodd">
        <g id="logo" transform="translate(4.000000, 0.000000)">
            <g id="Logo_inner">
                <path d="M43.5,2.84217094e-14 C67.5243866,2.84217094e-14 87,19.4756134 87,43.5 C87,62.8925882 74.3101035,79.3212923 56.7811896,84.9352332 C55.6347387,91.2284307 50.1245992,96 43.5,96 C36.8754008,96 31.3652613,91.2284307 30.2189634,84.9346741 C12.6898965,79.3212923 0,62.8925882 0,43.5 C0,19.4756134 19.4756134,2.84217094e-14 43.5,2.84217094e-14 Z" id="Combined-Shape" fill="#4722C3"></path>
                <path d="M21.2509181,52.5473684 C19.6178284,52.5473684 18.1412017,52.1940134 16.8209938,51.4872928 C15.5007858,50.7805722 14.46295,49.8002971 13.7074552,48.5464379 C12.9519605,47.2925788 12.5742188,45.8753593 12.5742188,44.2947368 C12.5742188,42.7141144 12.9519605,41.2968949 13.7074552,40.0430358 C14.46295,38.7891766 15.5007858,37.8089015 16.8209938,37.1021809 C18.1412017,36.3954603 19.6254596,36.0421053 21.2738118,36.0421053 C22.6627011,36.0421053 23.9180245,36.2852743 25.0398198,36.7716197 C26.161615,37.2579626 27.1040615,37.957076 27.8671875,38.8689735 L25.4862463,41.0575167 C24.4026073,39.8112567 23.0595257,39.1881361 21.4569611,39.1881361 C20.4648973,39.1881361 19.5796844,39.4047085 18.8012958,39.8378598 C18.0229073,40.2710112 17.4162312,40.8751342 16.9812494,41.6502472 C16.5462676,42.4253601 16.3287799,43.3068478 16.3287799,44.2947368 C16.3287799,45.2826259 16.5462676,46.1641136 16.9812494,46.9392265 C17.4162312,47.7143394 18.0229073,48.3184625 18.8012958,48.7516138 C19.5796844,49.1847652 20.4648973,49.4013376 21.4569611,49.4013376 C23.0595257,49.4013376 24.4026073,48.7706179 25.4862463,47.5091596 L27.8671875,49.6977028 C27.1040615,50.6247987 26.1577994,51.3315087 25.0283729,51.817854 C23.8989464,52.304197 22.6398074,52.5473684 21.2509181,52.5473684 Z M37.7220384,39.817279 C39.2461937,39.817279 40.4769307,40.2712396 41.4142862,41.1791744 C42.3516418,42.0871091 42.8203125,43.4338588 42.8203125,45.2194638 L42.8203125,52.2105263 L39.2538068,52.2105263 L39.2538068,45.7642219 C39.2538068,44.7957582 39.0404283,44.0732043 38.6136648,43.5965385 C38.1869013,43.1198728 37.5696276,42.8815435 36.7618253,42.8815435 C35.8625736,42.8815435 35.1462314,43.1577028 34.612777,43.7100298 C34.0793226,44.2623568 33.8125994,45.0832688 33.8125994,46.1727905 L33.8125994,52.2105263 L30.2460938,52.2105263 L30.2460938,35.3684211 L33.8125994,35.3684211 L33.8125994,41.2699674 C34.2850876,40.8008678 34.8566373,40.4414823 35.5272656,40.1918003 C36.197894,39.9421182 36.9294776,39.817279 37.7220384,39.817279 Z M46.21875,40.0842105 L49.9570313,40.0842105 L49.9570313,52.2105263 L46.21875,52.2105263 L46.21875,40.0842105 Z M48.0878906,38.4 C47.4350604,38.4 46.9036949,38.2064145 46.4937782,37.8192377 C46.0838615,37.432061 45.8789062,36.951969 45.8789062,36.3789474 C45.8789062,35.8059257 46.0838615,35.3258338 46.4937782,34.938657 C46.9036949,34.5514802 47.4350604,34.3578947 48.0878906,34.3578947 C48.7407209,34.3578947 49.2720864,34.5437368 49.6820031,34.9154265 C50.0919197,35.2871143 50.296875,35.7517241 50.296875,36.3092559 C50.296875,36.9132517 50.0919197,37.4127022 49.6820031,37.8076225 C49.2720864,38.2025428 48.7407209,38.4 48.0878906,38.4 Z M58.129859,40.1623579 L61.3326791,40.1623579 L61.3326791,42.9109895 L58.2226944,42.9109895 L58.2226944,52.2105263 L54.6021151,52.2105263 L54.6021151,42.9109895 L52.6757812,42.9109895 L52.6757812,40.1623579 L54.6021151,40.1623579 L54.6021151,39.6126316 C54.6021151,38.2077684 55.0237382,37.0930568 55.866997,36.2684632 C56.7102557,35.4438696 57.8977629,35.0315789 59.4295541,35.0315789 C59.9710965,35.0315789 60.485554,35.0888415 60.9729421,35.2033684 C61.4603302,35.3178953 61.8664808,35.4820481 62.1914062,35.6958316 L61.2398437,38.2841263 C60.8220825,37.9939915 60.3347017,37.8489263 59.7776867,37.8489263 C58.6791294,37.8489263 58.129859,38.4444572 58.129859,39.6355368 L58.129859,40.1623579 Z M68.6650152,40.1623579 L71.8678354,40.1623579 L71.8678354,42.9109895 L68.7578506,42.9109895 L68.7578506,52.2105263 L65.1372713,52.2105263 L65.1372713,42.9109895 L63.2109375,42.9109895 L63.2109375,40.1623579 L65.1372713,40.1623579 L65.1372713,39.6126316 C65.1372713,38.2077684 65.5588944,37.0930568 66.4021532,36.2684632 C67.245412,35.4438696 68.4329192,35.0315789 69.9647104,35.0315789 C70.5062527,35.0315789 71.0207102,35.0888415 71.5080983,35.2033684 C71.9954864,35.3178953 72.4016371,35.4820481 72.7265625,35.6958316 L71.775,38.2841263 C71.3572388,37.9939915 70.869858,37.8489263 70.312843,37.8489263 C69.2142857,37.8489263 68.6650152,38.4444572 68.6650152,39.6355368 L68.6650152,40.1623579 Z" id="Chiff" fill="#FFFFFF" fill-rule="nonzero"></path>
            </g>
        </g>
    </g>
</svg>