<?xml version="1.0" encoding="UTF-8" standalone="no"?>
<!DOCTYPE svg PUBLIC "-//W3C//DTD SVG 1.1//EN" "http://www.w3.org/Graphics/SVG/1.1/DTD/svg11.dtd">
<svg width="100%" height="100%" viewBox="0 0 1280 1280" version="1.1" xmlns="http://www.w3.org/2000/svg" xmlns:xlink="http://www.w3.org/1999/xlink" xml:space="preserve" xmlns:serif="http://www.serif.com/" style="fill-rule:evenodd;clip-rule:evenodd;stroke-linejoin:round;stroke-miterlimit:2;">
    <g transform="matrix(4.69109,0,0,4.69109,-532.768,-532.772)">
        <g id="firefox">
            <g transform="matrix(3.66761,0,0,3.66761,130.58,132.637)">
                <path d="M32.56,0C14.61,0 0,14.33 0,31.94C0,33.816 1.544,35.36 3.42,35.36L29.14,35.36L29.14,52.3L21.14,44.3C20.498,43.658 19.627,43.298 18.72,43.298C16.843,43.298 15.298,44.843 15.298,46.72C15.298,47.627 15.658,48.498 16.3,49.14L30.14,63C30.218,63.082 30.302,63.159 30.39,63.23L30.62,63.4L30.67,63.4L30.91,63.54L31.18,63.67L31.46,63.77L31.75,63.84L32,64L33.27,64L33.56,63.93L33.85,63.83L34.12,63.7L34.36,63.56L34.6,63.39L35,63L48.8,49.18C49.289,48.571 49.556,47.813 49.556,47.031C49.556,45.15 48.008,43.601 46.126,43.601C45.355,43.601 44.605,43.862 44,44.34L36,52.34L36,35.34L61.7,35.34C63.576,35.34 65.12,33.796 65.12,31.92C65.12,14.33 50.51,0 32.56,0ZM7.09,28.51C9.009,16.02 19.924,6.738 32.56,6.85C45.184,6.757 56.078,16.033 58,28.51L7.09,28.51Z" style="fill:url(#_Linear1);fill-rule:nonzero;"/>
            </g>
            <g transform="matrix(3.66761,0,0,3.66761,130.58,132.637)">
                <path d="M32.56,0C14.61,0 0,14.33 0,31.94C0,33.816 1.544,35.36 3.42,35.36L29.14,35.36L29.14,52.3L21.14,44.3C20.498,43.658 19.627,43.298 18.72,43.298C16.843,43.298 15.298,44.843 15.298,46.72C15.298,47.627 15.658,48.498 16.3,49.14L30.14,63C30.218,63.082 30.302,63.159 30.39,63.23L30.62,63.4L30.67,63.4L30.91,63.54L31.18,63.67L31.46,63.77L31.75,63.84L32,64L33.27,64L33.56,63.93L33.85,63.83L34.12,63.7L34.36,63.56L34.6,63.39L35,63L48.8,49.18C49.289,48.571 49.556,47.813 49.556,47.031C49.556,45.15 48.008,43.601 46.126,43.601C45.355,43.601 44.605,43.862 44,44.34L36,52.34L36,35.34L61.7,35.34C63.576,35.34 65.12,33.796 65.12,31.92C65.12,14.33 50.51,0 32.56,0ZM7.09,28.51C9.009,16.02 19.924,6.738 32.56,6.85C45.184,6.757 56.078,16.033 58,28.51L7.09,28.51Z" style="fill:url(#_Linear2);fill-rule:nonzero;"/>
            </g>
            <g transform="matrix(3.66761,0,0,3.66761,130.58,132.637)">
                <path d="M36,7.08C47.269,8.491 56.294,17.282 58,28.51L42.85,28.51C39.092,28.51 36,31.602 36,35.36L61.7,35.36C63.578,35.355 65.12,33.808 65.12,31.93C65.12,19.73 56.49,13.8 49.12,10.34C44.994,8.429 40.541,7.322 36,7.08Z" style="fill:url(#_Linear3);fill-rule:nonzero;"/>
            </g>
            <g transform="matrix(3.66761,0,0,3.66761,130.58,132.637)">
                <path d="M57.89,27.76C60.2,29.62 62.52,31.47 64.79,33.37C65.008,32.921 65.121,32.429 65.12,31.93C65.12,19.73 56.49,13.8 49.12,10.34C44.994,8.429 40.541,7.322 36,7.08C46.997,8.456 55.892,16.859 57.89,27.76Z" style="fill:url(#_Linear4);fill-rule:nonzero;"/>
            </g>
            <g transform="matrix(3.66761,0,0,3.66761,130.58,132.637)">
                <path d="M57.5,28.51L42.85,28.51C39.092,28.51 36,31.602 36,35.36L61.7,35.36C62.729,35.36 63.703,34.888 64.34,34.08C62.09,32.19 59.79,30.36 57.5,28.51Z" style="fill:url(#_Linear5);fill-rule:nonzero;"/>
            </g>
        </g>
    </g>
    <defs>
        <linearGradient id="_Linear1" x1="0" y1="0" x2="1" y2="0" gradientUnits="userSpaceOnUse" gradientTransform="matrix(-30.95,53.6,-53.6,-30.95,46.37,4.29)"><stop offset="0" style="stop-color:rgb(255,152,14);stop-opacity:1"/><stop offset="0.21" style="stop-color:rgb(255,113,57);stop-opacity:1"/><stop offset="0.36" style="stop-color:rgb(255,88,84);stop-opacity:1"/><stop offset="0.46" style="stop-color:rgb(255,79,94);stop-opacity:1"/><stop offset="0.69" style="stop-color:rgb(255,55,80);stop-opacity:1"/><stop offset="0.86" style="stop-color:rgb(249,34,97);stop-opacity:1"/><stop offset="1" style="stop-color:rgb(245,21,108);stop-opacity:1"/></linearGradient>
        <linearGradient id="_Linear2" x1="0" y1="0" x2="1" y2="0" gradientUnits="userSpaceOnUse" gradientTransform="matrix(-30.95,53.6,-53.6,-30.95,46.37,4.29)"><stop offset="0" style="stop-color:rgb(255,244,79);stop-opacity:0.8"/><stop offset="0.09" style="stop-color:rgb(255,244,79);stop-opacity:0.7"/><stop offset="0.75" style="stop-color:rgb(255,244,79);stop-opacity:0"/><stop offset="1" style="stop-color:rgb(255,244,79);stop-opacity:0"/></linearGradient>
        <linearGradient id="_Linear3" x1="0" y1="0" x2="1" y2="0" gradientUnits="userSpaceOnUse" gradientTransform="matrix(14.13,-24.47,24.47,14.13,40.19,37.92)"><stop offset="0" style="stop-color:rgb(58,142,230);stop-opacity:1"/><stop offset="0.24" style="stop-color:rgb(92,121,240);stop-opacity:1"/><stop offset="0.63" style="stop-color:rgb(144,89,255);stop-opacity:1"/><stop offset="1" style="stop-color:rgb(193,57,230);stop-opacity:1"/></linearGradient>
        <linearGradient id="_Linear4" x1="0" y1="0" x2="1" y2="0" gradientUnits="userSpaceOnUse" gradientTransform="matrix(-5.93,10.27,-10.27,-5.93,54.32,13.42)"><stop offset="0" style="stop-color:rgb(110,0,139);stop-opacity:0.5"/><stop offset="0.5" style="stop-color:rgb(200,70,203);stop-opacity:0"/><stop offset="1" style="stop-color:rgb(200,70,203);stop-opacity:0"/></linearGradient>
        <linearGradient id="_Linear5" x1="0" y1="0" x2="1" y2="0" gradientUnits="userSpaceOnUse" gradientTransform="matrix(-14.98,-14.96,14.96,-14.98,56.96,41.5)"><stop offset="0" style="stop-color:rgb(106,43,234);stop-opacity:0"/><stop offset="0.14" style="stop-color:rgb(106,43,234);stop-opacity:0"/><stop offset="0.34" style="stop-color:rgb(100,45,228);stop-opacity:0.02"/><stop offset="0.55" style="stop-color:rgb(81,49,211);stop-opacity:0.11"/><stop offset="0.76" style="stop-color:rgb(49,57,183);stop-opacity:0.24"/><stop offset="0.98" style="stop-color:rgb(5,68,144);stop-opacity:0.43"/><stop offset="1" style="stop-color:rgb(0,69,139);stop-opacity:0.45"/></linearGradient>
    </defs>
</svg>
