<?xml version="1.0" encoding="UTF-8"?>
<svg width="291px" height="323px" viewBox="0 0 291 323" version="1.1" xmlns="http://www.w3.org/2000/svg" xmlns:xlink="http://www.w3.org/1999/xlink">
    <!-- Generator: Sketch 54.1 (76490) - https://sketchapp.com -->
    <title>Logo</title>
    <desc>Created with Sketch.</desc>
    <g id="Logo" stroke="none" stroke-width="1" fill="none" fill-rule="evenodd">
        <g id="Logo_inner">
            <path d="M102.327598,284.879126 C43.0527429,266.474731 0,211.120595 0,145.693614 C0,65.2292527 65.1169711,2.84217094e-14 145.442826,2.84217094e-14 C225.76868,2.84217094e-14 290.885651,65.2292527 290.885651,145.693614 C290.885651,210.18204 249.059239,264.884539 191.098866,284.064357 C188.156965,306.02168 169.379901,322.954177 146.654849,322.954177 C124.211691,322.954177 105.619183,306.439154 102.327598,284.879126 Z" id="Combined-Shape" fill="#4722C3"></path>
            <path d="M63.1447132,149.936135 L56.2361788,157.949284 L56.2361788,176.160986 L44.2371454,176.160986 L44.2371454,112.784263 L56.2361788,112.784263 L56.2361788,141.558752 L80.5069509,112.784263 L95.2330373,112.784263 L71.3258723,140.46605 L96.6874656,176.160986 L81.8704774,176.160986 L63.1447132,149.936135 Z M144.293694,156.037055 L111.296352,156.037055 C111.781164,159.679414 113.129526,162.471847 115.34148,164.414438 C117.553434,166.35703 120.507712,167.328311 124.204403,167.328311 C126.931469,167.328311 129.885747,166.827494 133.067325,165.825845 C136.248903,164.824197 139.203181,163.443156 141.930248,161.682683 L142.293855,161.682683 L142.293855,171.425944 C139.869795,173.307829 137.097319,174.749574 133.976343,175.751223 C130.855367,176.752872 127.567785,177.253688 124.113501,177.253688 C119.144179,177.253688 114.811239,176.252055 111.114548,174.248758 C107.417858,172.24546 104.569631,169.36197 102.569782,165.598199 C100.569933,161.834428 99.5700236,157.433311 99.5700236,152.394715 C99.5700236,147.477531 100.524483,143.137119 102.433429,139.373348 C104.342376,135.609577 107.023951,132.695734 110.478236,130.631731 C113.93252,128.567728 117.932158,127.535742 122.477269,127.535742 C126.901177,127.535742 130.764464,128.537375 134.067245,130.540672 C137.370025,132.54397 139.900099,135.42746 141.657542,139.191231 C143.414985,142.955002 144.293694,147.356119 144.293694,152.394715 L144.293694,156.037055 Z M122.477269,137.187944 C119.629,137.187944 117.250427,138.128872 115.34148,140.010758 C113.432534,141.892643 112.144772,144.502961 111.478155,147.84179 L131.931053,147.84179 C131.446241,144.381549 130.416031,141.740878 128.840393,139.919699 C127.264754,138.09852 125.143734,137.187944 122.477269,137.187944 Z M198.717554,128.628444 L171.537925,197.286561 L160.175204,197.286561 L167.901855,177.708981 L148.721582,128.628444 L160.902418,128.628444 L174.083175,163.412795 L186.718521,128.628444 L198.717554,128.628444 Z M232.688517,127.535742 C237.476034,127.535742 241.33932,128.947134 244.278492,131.769962 C247.217664,134.59279 248.687228,138.310976 248.687228,142.92463 L248.687228,176.160986 L236.688194,176.160986 L236.688194,149.754018 C236.688194,145.626012 236.067039,142.66664 234.824708,140.875813 C233.582378,139.084987 231.537109,138.189587 228.688839,138.189587 C225.537562,138.189587 222.20453,139.950034 218.689644,143.470981 L218.689644,176.160986 L206.690611,176.160986 L206.690611,139.191231 L204.690772,128.628444 L215.689886,128.628444 L217.41702,134.729364 C220.022883,132.179713 222.537807,130.343385 224.961866,129.220324 C227.385926,128.097263 229.96145,127.535742 232.688517,127.535742 Z" id="Keyn" fill="#FFFFFF"></path>
        </g>
    </g>
</svg>