<?xml version="1.0" encoding="utf-8"?>
<!-- Generator: Adobe Illustrator 16.0.0, SVG Export Plug-In . SVG Version: 6.00 Build 0)  -->
<!DOCTYPE svg PUBLIC "-//W3C//DTD SVG 1.1//EN" "http://www.w3.org/Graphics/SVG/1.1/DTD/svg11.dtd">
<svg version="1.1" id="Layer_1" xmlns="http://www.w3.org/2000/svg" xmlns:xlink="http://www.w3.org/1999/xlink" x="0px" y="0px"
	 width="144px" height="86.333px" viewBox="0 0 144 86.333" enable-background="new 0 0 144 86.333" xml:space="preserve">
<g>
	<g enable-background="new    ">
		<path fill="#090509" d="M2.303,65.154h4.642V79.67h7.702v4.106H2.303V65.154z"/>
		<path fill="#090509" d="M16.122,66.173c0-1.61,1.073-2.684,2.656-2.684c1.583,0,2.657,1.073,2.657,2.684
			c0,1.584-1.073,2.656-2.657,2.656C17.194,68.83,16.122,67.757,16.122,66.173z M16.443,70.628h4.643v13.148h-4.643V70.628z"/>
		<path fill="#090509" d="M24.063,63.946h4.454v7.648c0.885-0.805,2.04-1.234,3.382-1.234c3.327,0,5.607,2.684,5.607,6.735
			c0,4.159-2.442,6.949-6.091,6.949c-1.664,0-2.925-0.59-3.784-1.717l-0.725,1.449h-2.844V63.946L24.063,63.946z M28.518,74.894
			v4.348c0.483,0.617,1.208,0.939,2.013,0.939c1.449,0,2.254-1.047,2.254-2.926c0-1.959-0.912-3.031-2.549-3.031
			C29.591,74.224,28.947,74.385,28.518,74.894z"/>
		<path fill="#090509" d="M39.545,70.628h3.622l0.403,2.039c0.966-1.368,2.442-2.146,3.998-2.146c0.806,0,1.691,0.215,2.335,0.59
			l-1.047,3.971c-0.564-0.295-1.369-0.482-2.066-0.482c-0.993,0-1.905,0.43-2.603,1.182v7.996h-4.643V70.628L39.545,70.628z"/>
		<path fill="#090509" d="M50.225,77.229c0-4.132,2.764-6.869,6.923-6.869c3.756,0,5.958,2.254,5.958,6.092
			c0,0.698-0.081,1.368-0.188,2.04h-7.889c0.456,1.475,1.637,2.119,3.596,2.119c1.073,0,2.12-0.188,3.22-0.564l1.02,3.141
			c-1.664,0.562-3.354,0.857-4.964,0.857C53.123,84.044,50.225,81.468,50.225,77.229z M54.867,75.806h3.865
			c0-1.287-0.697-2.038-1.906-2.038C55.753,73.767,55.082,74.464,54.867,75.806z"/>
		<path fill="#090509" d="M65.305,70.628h3.354l0.671,1.583c1.1-1.127,2.603-1.744,4.239-1.744c1.799,0,3.167,0.724,3.998,2.04
			c1.073-1.262,2.63-2.04,4.508-2.04c3.006,0,4.857,2.065,4.857,5.42v7.89H82.29v-7.111c0-1.127-0.349-2.174-1.959-2.174
			c-0.725,0-1.367,0.215-1.932,0.617c0.026,0.242,0.026,0.51,0.026,0.778v7.89h-4.614v-7.111c0-0.992-0.27-2.174-1.986-2.174
			c-0.671,0-1.315,0.188-1.879,0.59v8.695h-4.642V70.628L65.305,70.628z"/>
		<path fill="#090509" d="M93.049,74.626c0-5.85,3.838-9.741,9.606-9.741c5.635,0,9.393,3.784,9.393,9.474
			c0,5.822-3.863,9.686-9.687,9.686C96.778,84.044,93.049,80.288,93.049,74.626z M107.218,74.626c0-3.436-1.932-5.716-4.857-5.716
			c-2.683,0-4.48,2.174-4.48,5.448c0,3.406,1.904,5.66,4.775,5.66C105.393,80.019,107.218,77.873,107.218,74.626z"/>
		<path fill="#090509" d="M114.193,70.628h3.354l0.725,1.717c1.073-1.207,2.549-1.878,4.213-1.878c2.979,0,4.723,2.093,4.723,5.688
			v7.621h-4.643v-7.111c0-1.476-0.563-2.174-1.824-2.174c-0.725,0-1.342,0.242-1.905,0.697v8.588h-4.643V70.628z"/>
		<path fill="#090509" d="M128.816,77.229c0-4.132,2.765-6.869,6.923-6.869c3.758,0,5.958,2.254,5.958,6.092
			c0,0.698-0.081,1.368-0.188,2.04h-7.889c0.456,1.475,1.637,2.119,3.596,2.119c1.073,0,2.12-0.188,3.221-0.564l1.02,3.141
			c-1.664,0.562-3.354,0.857-4.965,0.857C131.714,84.044,128.816,81.468,128.816,77.229z M133.459,75.806h3.864
			c0-1.287-0.698-2.038-1.905-2.038C134.345,73.767,133.673,74.464,133.459,75.806z"/>
	</g>
	<path fill="#090509" d="M112.038,46.545h-8.051v-4.024c0-11.467-6.168-22.152-16.1-27.886c-9.93-5.732-22.268-5.732-32.199,0
		C45.759,20.37,39.59,31.054,39.59,42.521v4.024h-8.05v-4.024c0-14.334,7.71-27.69,20.125-34.856
		c12.413-7.167,27.836-7.167,40.249,0c12.414,7.166,20.125,20.522,20.125,34.856V46.545z"/>
	<path fill="#090509" d="M93.93,46.545h-8.05v-4.024c0-5.017-2.699-9.691-7.044-12.199c-4.345-2.508-9.741-2.508-14.086,0
		c-4.344,2.508-7.043,7.183-7.043,12.199v4.024h-8.05v-4.024c0-7.883,4.241-15.229,11.068-19.17c6.826-3.943,15.31-3.943,22.137,0
		c6.827,3.941,11.068,11.288,11.068,19.17V46.545z"/>
</g>
</svg>
