<svg width="595.275" height="311.111" xmlns="http://www.w3.org/2000/svg">
 <metadata/>

 <g>
  <title>background</title>
  <rect fill="none" id="canvas_background" height="402" width="582" y="-1" x="-1"/>
 </g>
 <g>
  <title>Layer 1</title>
  <g id="svg_13">
   <g id="svg_1">
    <g id="svg_2">
     <path id="svg_3" d="m37.359322,226.594482c-18.809891,0 -34.113702,15.303818 -34.113702,34.113739c0,18.809875 15.303811,34.113708 34.113702,34.113708c18.80991,0 34.113708,-15.303833 34.113708,-34.113708c0,-18.809921 -15.303799,-34.113739 -34.113708,-34.113739zm0,59.445343c-13.967581,0 -25.331612,-11.364044 -25.331612,-25.331604c0,-13.967621 11.364031,-25.33165 25.331612,-25.33165s25.331619,11.364029 25.331619,25.33165c0,13.96756 -11.364029,25.331604 -25.331619,25.331604z" fill="#272D46"/>
     <path id="svg_4" d="m162.333954,229.018356l-1.688873,0l0,1.688843l0,40.632736c0,8.099823 -6.590622,14.69043 -14.6931,14.69043c-8.101166,0 -14.69313,-6.590607 -14.69313,-14.69043l0,-40.632736l0,-1.688843l-1.688873,0l-5.40435,0l-1.688873,0l0,1.688843l0,40.632736c0,8.099823 -6.590637,14.69043 -14.69313,14.69043c-8.101143,0 -14.690414,-6.590607 -14.690414,-14.69043l0,-40.632736l0,-1.688843l-1.688873,0l-5.40435,0l-1.688873,0l0,1.688843l0,40.632736c0,12.942139 10.52906,23.472534 23.472511,23.472534c7.864716,0 14.82148,-3.901947 19.084167,-9.854858c4.262703,5.952911 11.219475,9.854858 19.08419,9.854858c12.944794,0 23.475204,-10.530396 23.475204,-23.472534l0,-40.632736l0,-1.688843l-1.688873,0l-5.404358,0z" fill="#272D46"/>
     <path id="svg_5" d="m217.061264,226.318863c-18.811234,0 -34.115067,15.303818 -34.115067,34.115097l0,29.995575l0,1.688873l1.688873,0l5.404358,0l1.688873,0l0,-1.688873l0,-29.995575c0,-13.968979 11.364029,-25.332993 25.332962,-25.332993c13.970306,0 25.335678,11.364014 25.335678,25.332993l0,29.995575l0,1.688873l1.688843,0l5.404373,0l1.688858,0l0,-1.688873l0,-29.995575c0,-18.811279 -15.305161,-34.115097 -34.117752,-34.115097z" fill="#272D46"/>
    </g>
    <g id="svg_6">
     <path id="svg_7" d="m398.793945,226.591782c-18.812622,0 -34.116455,15.303802 -34.116455,34.11644c0,18.812592 15.303833,34.116394 34.116455,34.116394s34.116425,-15.303802 34.116425,-34.116394c-0.000031,-18.812637 -15.303864,-34.11644 -34.116425,-34.11644zm0,59.45076c-13.968933,0 -25.33432,-11.365387 -25.33432,-25.33432c0,-13.968948 11.365387,-25.334335 25.33432,-25.334335s25.33432,11.365387 25.33432,25.334335c-0.000061,13.968933 -11.365417,25.33432 -25.33432,25.33432z" fill="#272D46"/>
     <path id="svg_8" d="m504.853241,229.018356l-1.688812,0l0,1.688843l0,30.001022c0,13.96756 -11.365387,25.330292 -25.335724,25.330292c-13.968903,0 -25.332977,-11.362732 -25.332977,-25.330292l0,-30.001022l0,-1.688843l-1.688843,0l-5.404388,0l-1.688843,0l0,1.688843l0,30.001022c0,18.809875 15.303802,34.112366 34.115051,34.112366c18.812622,0 34.117767,-15.30249 34.117767,-34.112366l0,-30.001022l0,-1.688843l-1.688812,0l-5.404419,0z" fill="#272D46"/>
     <path id="svg_9" d="m592.028381,176.658157l0,-1.688873l-1.688782,0l-5.404419,0l-1.688904,0l0,1.688873l0,49.890396l-25.615295,0.028366c-18.809937,0 -34.113708,15.303802 -34.113708,34.115067c0,18.809906 15.303772,34.112396 34.115051,34.112396l10.604675,0c10.581787,0 23.55365,-10.438568 23.790039,-23.399597l0.001343,-94.746628zm-8.783386,94.587204c-0.139221,7.610718 -8.572754,14.776886 -15.007996,14.776886l-10.604675,0c-13.968994,0 -25.332947,-11.362671 -25.332947,-25.330261c0,-13.968933 11.365295,-25.332977 25.335632,-25.332977l25.634277,-0.029724c0.040527,8.170059 0.118835,28.07843 -0.024292,35.916077z" fill="#272D46"/>
     <path id="svg_10" d="m342.052124,271.339935l0,-67.206009c-3.058868,-1.544296 -5.992096,-3.295319 -8.782104,-5.243591l0,72.4496c0,12.942078 10.530426,23.472534 23.472504,23.472534l1.688873,0l0,-1.688873l0,-5.404358l0,-1.688873l-1.688873,0c-8.099792,0 -14.690399,-6.590607 -14.690399,-14.69043z" fill="#272D46"/>
     <path id="svg_11" d="m272.337128,242.919739c0,-13.09613 5.877289,-24.841187 15.122803,-32.755859c-2.911621,-1.120071 -5.6138,-2.660309 -8.036316,-4.546432c-9.773804,9.444138 -15.868561,22.669968 -15.868561,37.302292c0,28.618805 23.283356,51.900848 51.903534,51.900848l1.688843,0l0,-1.688873l0,-5.404358l0,-1.688843l-1.688843,0c-23.77652,0 -43.12146,-19.343597 -43.12146,-43.118774z" fill="#272D46"/>
    </g>
   </g>
   <path id="svg_12" d="m274.147614,75.308693c-2.056366,-3.608757 -3.246704,-7.771477 -3.246704,-12.212505c0,-13.656834 11.11142,-24.768215 24.768219,-24.768215c5.051727,0 9.752228,1.52808 13.673065,4.135696c-2.911591,6.558189 -4.542358,13.808159 -4.542358,21.433708c0,1.405144 0.071594,2.791359 0.179688,4.169472c-0.966034,-0.048645 -1.940186,-0.07431 -2.918365,-0.07431c-10.134552,0 -19.652954,2.667061 -27.913544,7.316154zm-5.459747,96.070732c-14.356735,-10.381805 -23.725174,-27.256927 -23.725174,-46.288414c0,-4.86393 0.614746,-9.587349 1.764526,-14.09594c-0.475586,-0.014862 -0.951157,-0.036476 -1.430801,-0.036476c-26.255768,0 -47.615173,21.360771 -47.615173,47.616508c0,26.254425 21.359406,47.615204 47.615173,47.615204c10.006195,0 19.296295,-3.111572 26.969147,-8.405151c-3.165619,-4.908524 -5.0112,-10.745239 -5.0112,-17.007553c0,-3.272324 0.502563,-6.428467 1.433502,-9.398178zm2.134705,-5.13414c4.276215,-8.178177 12.035522,-14.255356 21.3013,-16.241486c0.875519,-0.190491 1.767242,-0.335083 2.668427,-0.448563c0.89035,-0.113495 1.790192,-0.190506 2.700806,-0.224289c0.41214,-0.01619 0.824188,-0.031067 1.240295,-0.031067c1.460541,0 2.896759,0.108078 4.304596,0.3013c-0.44043,-3.211548 -0.68634,-6.486603 -0.68634,-9.817017c0,-16.002327 5.248993,-30.796799 14.108063,-42.768822c-2.006348,-2.499519 -3.79657,-5.178741 -5.330017,-8.020088c-0.429688,-0.798492 -0.83905,-1.609146 -1.229492,-2.433319c-0.390503,-0.820107 -0.757996,-1.655075 -1.105194,-2.499512c-1.382172,-3.349358 -2.425201,-6.871651 -3.099396,-10.523659c-1.202515,-0.083755 -2.410339,-0.141861 -3.633087,-0.141861c-8.94696,0 -17.369659,2.286049 -24.716858,6.302841c-0.812042,0.444511 -1.606445,0.913338 -2.392792,1.398384c-0.7742,0.47963 -1.533508,0.982239 -2.28067,1.49836c-8.382172,5.816452 -14.963318,14.041901 -18.742355,23.67112c-0.332336,0.84713 -0.644501,1.705086 -0.932251,2.572487c-0.286438,0.866043 -0.552582,1.738853 -0.794449,2.622467c-1.188965,4.345116 -1.836121,8.911804 -1.836121,13.627113c0,16.777863 8.036285,31.706055 20.455536,41.155609zm166.828735,-60.969376c6.887848,-3.618225 14.595856,-5.867783 22.769928,-6.390663c-2.113068,-24.316948 -22.567261,-43.463257 -47.423309,-43.463257c-0.951141,0 -1.892883,0.035122 -2.830536,0.090519c0.435089,2.731907 0.668762,5.531368 0.668762,8.384869c0,4.426178 -0.552582,8.725349 -1.58075,12.839417c11.949066,6.631165 21.82959,16.55088 28.395905,28.539116zm-126.851318,-33.871864c0.15271,0.959274 0.341827,1.906395 0.549927,2.845406c0.480988,2.160385 1.102478,4.265388 1.867188,6.305542c0.339142,0.90522 0.70932,1.791542 1.101166,2.671097c0.383698,0.860649 0.79306,1.709129 1.226776,2.542763c1.267365,2.440071 2.733276,4.757187 4.387024,6.927048c3.323669,-3.839806 7.035095,-7.333733 11.089722,-10.400703c0.764709,-0.578262 1.545654,-1.134926 2.333344,-1.682114c0.78363,-0.545837 1.58078,-1.072762 2.38739,-1.587532c10.934357,-6.983795 23.861633,-11.09922 37.729187,-11.277565c0.313507,-0.004059 0.624207,-0.024323 0.937683,-0.024323c0.901215,0 1.79425,0.035133 2.68869,0.067566c1.232178,0.045929 2.457642,0.12294 3.674957,0.229683c8.322754,0.732292 16.240112,2.885941 23.514435,6.21637c0.74173,-3.331787 1.144318,-6.78788 1.144318,-10.338547c0,-2.64003 -0.225586,-5.228718 -0.641724,-7.753914c-0.147278,-0.893082 -0.321564,-1.778042 -0.518829,-2.654896c-0.197235,-0.88361 -0.420197,-1.757767 -0.66748,-2.619762c-5.682678,-19.938065 -24.050751,-34.583899 -45.787109,-34.583899c-17.933044,0 -33.578705,9.969707 -41.696045,24.654722c-0.452606,0.81741 -0.883606,1.649689 -1.28894,2.496819c-0.418823,0.879559 -0.80661,1.778034 -1.17276,2.687313c-2.221191,5.496246 -3.456055,11.492393 -3.456055,17.773617c0,1.591583 0.082397,3.164253 0.235077,4.715309c0.094574,0.93766 0.216156,1.867203 0.362061,2.790001zm214.464233,80.522362c-1.426819,0 -2.815674,0.147278 -4.180237,0.366135c0.074219,1.179504 0.122925,2.36441 0.122925,3.560135c0,15.166 -5.954285,28.956589 -15.633514,39.192459c4.785553,5.520554 11.828766,9.033417 19.690826,9.033417c14.378296,0 26.07605,-11.697769 26.07605,-26.074738c-0.001343,-14.379654 -11.699097,-26.077408 -26.07605,-26.077408zm-9.514404,1.823975c-0.037842,-0.944412 -0.098633,-1.882065 -0.187805,-2.812973c-0.086487,-0.92955 -0.197266,-1.849655 -0.33374,-2.765671c-3.63031,-24.268318 -24.192596,-43.064713 -49.239105,-43.965897c-0.62561,-0.022957 -1.249817,-0.047279 -1.880768,-0.047279c-0.275604,0 -0.54718,0.016212 -0.821442,0.021614c-0.907928,0.013519 -1.809113,0.052704 -2.704895,0.113487c-7.370209,0.498558 -14.321594,2.546822 -20.528503,5.824554c3.737122,8.236259 5.971832,17.289932 6.343384,26.81649c0.036499,0.947098 0.072937,1.894211 0.072937,2.8508c0,0.279678 -0.01886,0.553925 -0.021606,0.830902c-0.014832,1.215988 -0.056732,2.422516 -0.131012,3.623642c-1.099823,17.929001 -8.776733,34.098831 -20.652802,46.13031c9.469788,10.537186 23.194153,17.179153 38.443939,17.179153c13.166412,0 25.192474,-4.955811 34.329895,-13.089386c0.691772,-0.617447 1.371338,-1.248413 2.029327,-1.899658c0.663361,-0.656616 1.31192,-1.329453 1.940186,-2.023926c8.318665,-9.177963 13.394745,-21.348572 13.394745,-34.679794c0,-0.707993 -0.025696,-1.407852 -0.052734,-2.106369zm-202.212494,24.514206c-0.513428,-0.807968 -1.009277,-1.625366 -1.490265,-2.453583c-3.662781,-6.315018 -6.394684,-13.228531 -8.006561,-20.562271c-1.714539,-0.356674 -3.489838,-0.545822 -5.307098,-0.545822c-0.193207,0 -0.379669,0.024307 -0.571533,0.028366c-0.910645,0.018906 -1.807739,0.086456 -2.694031,0.19725c-0.906616,0.11348 -1.796997,0.276978 -2.672455,0.47963c-7.682312,1.799652 -14.050018,6.995972 -17.4534,13.920319c-0.401306,0.817398 -0.759338,1.657791 -1.0755,2.51976c-0.313416,0.857971 -0.582306,1.733475 -0.80658,2.627884c-0.503998,2.02124 -0.801208,4.124878 -0.801208,6.298798c0,5.011185 1.445679,9.681931 3.907349,13.658173c0.481018,0.78093 0.999817,1.533508 1.557831,2.253632c0.54718,0.706635 1.125458,1.387573 1.741547,2.034744c4.753143,4.99498 11.445099,8.128159 18.867981,8.128159c11.045166,0 20.486603,-6.916245 24.279144,-16.637329c-2.894073,-2.94809 -5.535461,-6.140701 -7.891724,-9.546829c-0.544495,-0.787674 -1.070068,-1.590225 -1.583496,-2.400879zm127.307983,-33.320618c0.087799,-1.143021 0.145905,-2.2901 0.175659,-3.44664c0.014832,-0.57016 0.043243,-1.140335 0.043243,-1.715897c0,-9.564377 -2.040161,-18.65451 -5.682739,-26.884026c-0.371521,-0.83902 -0.753876,-1.671295 -1.157867,-2.492752c-0.397217,-0.805244 -0.801178,-1.606453 -1.229523,-2.392784c-5.890717,-10.819542 -14.702545,-19.820511 -25.355896,-25.974739c-0.789032,-0.456657 -1.586151,-0.897125 -2.394165,-1.321373c-0.807953,-0.422882 -1.619934,-0.834961 -2.44812,-1.225433c-8.178223,-3.865479 -17.262939,-6.105583 -26.842163,-6.325813c-0.514771,-0.010811 -1.026855,-0.037827 -1.544312,-0.037827c-0.640411,0 -1.271393,0.029732 -1.907776,0.048645c-1.148376,0.031067 -2.286011,0.091873 -3.418243,0.183739c-10.50473,0.834984 -20.33255,4.101913 -28.909302,9.259033c-0.798492,0.479637 -1.583435,0.982246 -2.360352,1.494301c-0.7836,0.516121 -1.552368,1.052521 -2.31308,1.601051c-4.445099,3.208847 -8.479431,6.945969 -12.012543,11.124893c-0.589081,0.69986 -1.163269,1.414589 -1.725342,2.137428c-0.555298,0.714729 -1.095734,1.440254 -1.621277,2.176613c-7.785034,10.905998 -12.385498,24.235878 -12.385498,38.627716c0,3.797897 0.336456,7.517456 0.951202,11.143784c0.175629,1.041702 0.374237,2.07933 0.598511,3.106171c0.24588,1.118698 0.520203,2.226593 0.820099,3.327728c1.664581,6.077225 4.155975,11.81395 7.368866,17.071045c0.485046,0.797134 0.990356,1.58078 1.509186,2.353607c0.521515,0.775528 1.063263,1.538879 1.615875,2.292801c1.245728,1.699677 2.569794,3.338547 3.966797,4.911224c0.763397,0.857925 1.542938,1.69696 2.346863,2.514374c0.737701,0.749863 1.492981,1.480804 2.265778,2.195526c11.890961,10.993835 27.775757,17.730377 45.208893,17.730377c16.79538,0 32.147888,-6.256912 43.882111,-16.545486c0.67688,-0.591766 1.338898,-1.19841 1.991486,-1.818558c0.667419,-0.633652 1.32135,-1.279495 1.963135,-1.94017c9.756256,-10.066956 16.365814,-23.184723 18.249176,-37.772461c0.145935,-1.125458 0.263489,-2.260376 0.351318,-3.406097z" fill="#272D46"/>
  </g>
 </g>
</svg>