<svg xmlns="http://www.w3.org/2000/svg" xmlns:xlink="http://www.w3.org/1999/xlink" width="256" height="256" viewBox="0 0 256 256">
    <defs>
        <path id="a" d="M242.248 104.75a118.832 118.832 0 0 1 4.502 32.5C246.75 202.834 193.584 256 128 256S9.25 202.834 9.25 137.25c0-11.269 1.57-22.171 4.502-32.5a118.831 118.831 0 0 1-4.502-32.5C9.25 6.666 62.416-46.5 128-46.5S246.75 6.666 246.75 72.25c0 11.269-1.57 22.171-4.502 32.5z"/>
        <path id="c" d="M24.93.043c4.21 0 8.2 1.81 11.409 6.355 9.386 13.294 5.498 31.027-7.74 43.53-2.355 2.225-4.624 3.511-6.815 4.021h-4.44c-5.867-1.359-11.185-7.937-16.19-16.115a97.01 97.01 0 0 0-.91-1.457V15.984C5.74 8.462 15.847.044 24.929.044z"/>
        <path id="e" d="M.191.192c.974.122 1.866.238 2.665.346 5.632.762 18.652 2.554 31.75 11.876 10.898 7.755 26.866 29.34 25.468 70.491-.477 14.036-1.717 32.488-4.206 50.697.07 1.906.172 3.826.31 5.758H.191V.192z"/>
        <path id="g" d="M.202.045H63.85v80.31H.202z"/>
        <path id="i" d="M146.595.043c-1.407.435-2.906 1.038-4.31 1.858-2.85-.156-5.794-.259-8.738-.276-12.38-.071-27.05 3.854-38.647 9.725-17.638 8.929-33.721 25.255-41.279 54.88-4.556 12.135-6.627 52.563-31.995 105.462-13.81 28.8-20.682 59.31-21.435 69.016 0 0 73.662 35.528 137.101 41.33 3.181.291 6.282.505 9.303.648V.043z"/>
        <path id="k" d="M66.091.108c-.667 8.15-1.559 16.724-2.723 25.244.69 18.774 4.482 38.942 15.778 58.4 15.423 26.568 2.472 57.889 1.72 67.595 0 0-26.84 21.205-80.652 20.017V.108h65.877z"/>
        <path id="m" d="M95.413 53.127c-2.767-5.048-5.774-10.23-8.923-15.759C75.08 17.34 65.897 10.17 57.28 5.752 49.771 1.902 40.503.08 31.634.08 20.298.08 9.613 3.055 4.072 8.576A40.394 40.394 0 0 0 .014 13.28v39.847h95.4z"/>
        <path id="o" d="M55.636 6.694C40.05 23.675 46.49 43.904 61.32 64.466c1.78 2.47 3.014 3.706 5.08 2.703 2.925-1.42 6.035-12.615 15.349-22.754 10.754-11.707 15.485-12.94 18.357-17.93 1.474-2.561-3.444-8.678-9.107-15.196-6.091-7.01-22.632-18.463-35.362-4.595"/>
    </defs>
    <g fill="none" fill-rule="evenodd">
        <mask id="b" fill="#fff">
            <use xlink:href="#a"/>
        </mask>
        <path fill="#50BBFF" d="M128 18.5c65.584 0 118.75 53.166 118.75 118.75S193.584 256 128 256 9.25 202.834 9.25 137.25 62.416 18.5 128 18.5" mask="url(#b)"/>
        <g mask="url(#b)">
            <g transform="translate(-10.5)">
                <path fill="#5D4E45" d="M210.339 7.013c-10.327-14.625-28.735-.92-36.544 10.212-8.442 12.036-6.636 8.164 1.359 21.224C183.176 51.555 192 60.553 202.6 50.543c13.237-12.503 17.125-30.236 7.739-43.53"/>
                <g transform="translate(174 .615)">
                    <mask id="d" fill="#fff">
                        <use xlink:href="#c"/>
                    </mask>
                    <path fill="#6B5D56" d="M42.329 6.14C32.002-8.485 13.594 5.22 5.785 16.352-2.658 28.388-.85 24.516 7.144 37.576 15.165 50.682 23.99 59.68 34.589 49.67c13.238-12.503 17.126-30.236 7.74-43.53" mask="url(#d)"/>
                </g>
                <path fill="#6B5D56" d="M230.646 203.366c-11.295-19.457-15.087-39.625-15.779-58.398 2.49-18.21 3.73-36.662 4.207-50.698 1.398-41.151-14.57-62.736-25.467-70.49-13.1-9.322-26.119-11.115-31.75-11.877a264.333 264.333 0 0 0-4.816-.605c.367-.698.745-1.413 1.093-2.066-.594-.002-3.965.138-6.8 1.465l-.696-.065c-.052-.779.113-1.81 1.175-3.467-1.674.069-5.914.74-9.528 2.851-2.85-.156-5.794-.259-8.738-.276-12.38-.071-27.05 3.854-38.647 9.725-17.638 8.929-33.721 25.255-41.279 54.88-4.556 12.135-6.626 52.563-31.995 105.463-13.81 28.8-20.682 59.31-21.435 69.015 0 0 73.662 35.528 137.101 41.33 63.44 5.802 95.074-19.191 95.074-19.191.753-9.706 13.703-41.028-1.72-67.596"/>
                <g transform="translate(159 11.365)">
                    <mask id="f" fill="#fff">
                        <use xlink:href="#e"/>
                    </mask>
                    <path fill="#88786F" d="M47.356 133.954C57.613 105.997 63.097 50.77 42.594 22.13 35.341 11.997 18.633 4.19.191.061c4.526-7.468 52.462-6.415 52.462-6.415l23.056 28.508-6.65 59.41s23.595 78.775-21.703 52.39" mask="url(#f)"/>
                </g>
                <g transform="translate(141.5 54.865)">
                    <mask id="h" fill="#fff">
                        <use xlink:href="#g"/>
                    </mask>
                    <path fill="#605149" d="M48.288 9.002c7.853 6.13 15.092 15.42 15.486 24.925C64.96 62.53 52.04 79.81 36.027 80.322c-11.318.36-37.18-1.538-35.77-39.495C1.48 7.954 12.285-.886 25.197.12c12.692.99 14.86 2.458 23.09 8.881" mask="url(#h)"/>
                </g>
                <g transform="translate(0 8.115)">
                    <mask id="j" fill="#fff">
                        <use xlink:href="#i"/>
                    </mask>
                    <path fill="#5D4E45" d="M138.164 281.618c-82.894-10.453-99.136-103.006-85.05-160.225C60.342 92.03 67.778 45.12 87.324 13.728c.102-48.642-53.265-70.093-53.265-70.093L8.461 63.5-23.5 292.523s214.721-4.215 161.664-10.905" mask="url(#j)"/>
                </g>
                <g transform="translate(151.5 119.615)">
                    <mask id="l" fill="#fff">
                        <use xlink:href="#k"/>
                    </mask>
                    <path fill="#584940" d="M164.422 178.353c-12.4-21.603-22.216-37.588-40.06-61.324-15.988-21.268-23.376-73.995-31.642-81.199C74.6 20.04 49.002-5.102 23.777 1.061-1.613 7.265-6.683 46.693 9.537 66.32c15.765 19.077 44.433 27.583 9.4 94.82-21.332 40.944 22.778 64.91 37.86 86.797 14.187 20.59 126.04-37.5 107.625-69.584" mask="url(#l)"/>
                </g>
                <path fill="#5D4E45" d="M196.857 57.283c.957 1.1 2.732.382 1.568-2.58-1.415-3.601-4.58-3.843-8.012-3.67-3.85.195-6.613 1.757-6.598 5.345.012 3.102 1.76 5.385 2.585 3.674 1.222-2.535 2.38-4.554 3.954-4.98 2.601-.705 4.59.013 6.503 2.211"/>
                <path fill="#010202" d="M191.29 52.4c-3.044.617-5.341 3.345-5.322 6.505a6.155 6.155 0 0 0 6.047 6.145c3.073-.567 5.431-3.297 5.413-6.511-.02-3.438-2.75-6.12-6.138-6.139"/>
                <path fill="#FEFEFE" d="M193.901 54.613c-.022.711-.665 1.291-1.433 1.296-.766.004-1.369-.567-1.347-1.275.023-.709.661-1.289 1.428-1.296.768-.007 1.374.564 1.352 1.275" opacity=".65"/>
                <path fill="#E5C094" d="M187.772 58.45c11.195 4.399 22.174 6.611 23.839 20.564 1.49 12.482 1.422 21.21-1.133 28.574-2.393 6.895-9.196 15.07-15.407 18.26-6.363 3.27-9.282 3.884-20.614 3.082-6.713-.475-18.794-2.602-24.08-9.526-5.25-6.877-7.888-18.008-7.153-27.693 1.998-26.327 9.961-35.768 19.56-36.941 11.467-1.402 15.99.143 24.988 3.68"/>
                <path fill="#010202" d="M151.613 168.073c15.039-3.727 27.522-4.219 30.163-3.205-1.312 3.289-5.456 7.01-5.456 7.01-3.62-.31-16.98-1.184-24.673-1.67-1.221-.077-1.249-1.834-.034-2.135M148.655 162.688c-1.233.086-1.492-1.634-.316-2.09 14.566-5.65 27.322-6.869 30.034-6.027-1.112 3.35-5.036 7.304-5.036 7.304-3.65-.081-16.916.27-24.682.813M147.766 155.174c-1.213.312-1.788-1.307-.699-1.967 13.48-8.171 28.58-10.344 31.358-9.7-.88 3.403-4.54 7.602-4.54 7.602-3.665.176-18.478 2.103-26.12 4.065M148.745 147.054c-1.172.47-1.966-1.038-.965-1.834 12.389-9.846 26.645-12.714 29.468-12.235-.686 3.432-4.727 7.417-4.727 7.417-3.665.388-16.392 3.689-23.776 6.652M153.124 133.837c12.653-9.486 24.619-12.485 28.527-12.429-.664 3.435-6.619 8.026-6.619 8.026-3.664.413-13.547 3.525-21.001 6.27-1.183.435-1.93-1.1-.907-1.867M209.012 79.09c-2.708 6.858-9.134 11.445-13.277 11.59-5.647.196-13.043-2.48-16.943-9.527-5.073-9.168 1.608-12.04 14.539-12.911 11.853-.799 19.1 2.19 15.681 10.847M201.393 108.63c.215.103.358.232.44.366a.6.6 0 0 1 .081.202.507.507 0 0 1 0 .196c-.049.25-.29.445-.63.414-3.383-.327-7.573-.025-12.22.803-3.549.615-7.397 1.418-11.754 2.876a.56.56 0 0 1-.228.029.458.458 0 0 1-.19-.06.495.495 0 0 1-.224-.307.588.588 0 0 1-.015-.208.646.646 0 0 1 .063-.218.902.902 0 0 1 .404-.39c2.619-1.305 7.523-3.497 12.07-4.482 1.898-.371 4.229-.594 6.462-.459a22.956 22.956 0 0 1 1.645.154c.535.07 1.053.159 1.546.264.984.21 1.861.486 2.55.82"/>
                <path fill="#4E4E4C" d="M194.672 72.682c-5.031.3-9.366.969-12.383 2.054a1.136 1.136 0 0 1-.402.068 1.002 1.002 0 0 1-.36-.077 1.086 1.086 0 0 1-.635-.775.92.92 0 0 1 0-.33c.044-.217.18-.421.432-.57 2.689-1.519 7.538-2.826 13.122-3.147a35.734 35.734 0 0 1 2.014-.044 30.625 30.625 0 0 1 5.286.493c2.088.388 3.846.878 5.151 1.387.243.097.401.236.484.396a.618.618 0 0 1 .063.385.757.757 0 0 1-.031.132c-.117.35-.489.664-.974.527-2.707-.697-6.85-.78-11.767-.5"/>
                <path fill="#5D4E45" d="M130.736 63.061c-.669 1.602-3.063.971-2.883-2.778.228-4.73 5.311-6.027 9.284-5.928 6.291.155 8.456.92 8.637 5.528.142 3.613-2.444 3.891-3.38 1.904-1.408-2.99-3.51-4.309-5.541-4.159-2.02.15-4.42 1.376-6.117 5.433"/>
                <path fill="#010202" d="M143.893 63.356c-.146 4.02-3.326 7.127-7.067 6.944-3.701-.18-6.56-3.52-6.42-7.461.139-3.944 3.229-7.06 6.936-6.955 3.747.105 6.696 3.451 6.55 7.472"/>
                <path fill="#7D6D63" d="M279.792 239.403c4.965-39.255-7.522-58.59-23.802-87.17-11.41-20.029-20.593-27.198-29.21-31.616-17.106-8.77-43.332-7.017-53.207 2.825-9.05 9.02-13.703 21.623-8.435 37.162 5.213 15.378 26.303 20.519 34.179 41.215 8.248 21.675 9.704 51.22-34.775 85.334-17.57 13.477 110.87-13.126 115.25-47.75"/>
                <g transform="translate(169.5 114.865)">
                    <mask id="n" fill="#fff">
                        <use xlink:href="#m"/>
                    </mask>
                    <path fill="#958379" d="M111.891-32.528C97.707-50.269 87.598-55.715 78.448-58.544c-18.162-5.618-43.823.741-52.1 12.236-7.759 10.773-37.036 60.211-22.2 53.768 22.356-9.709 49.579-2.789 67.76 10.765 63.134 47.063 18.27 36.475 55.384 25.563 37.115-10.912 4.839-51-15.4-76.316" mask="url(#n)"/>
                </g>
                <path fill="#FEFEFE" d="M140.249 58.719c-.078.828-.806 1.477-1.626 1.448-.818-.028-1.417-.72-1.34-1.545.076-.825.8-1.474 1.618-1.45.82.025 1.425.718 1.348 1.547" opacity=".65"/>
                <mask id="p" fill="#fff">
                    <use xlink:href="#o"/>
                </mask>
                <use fill="#6B5D56" xlink:href="#o"/>
                <g mask="url(#p)">
                    <path fill="#5D4E45" d="M75.785.84c-4.064.43-8.164 2.265-11.93 6.255-15.59 16.514-9.148 36.186 5.683 56.183.095.128.188.252.28.372-1.174 2.362-2.12 4.01-3.097 4.483-2.066 1.003-6.448-.521-8.229-2.99-14.828-20.564-19.13-42.596-3.544-59.577 6.49-7.07 14.114-7.213 20.837-4.725z"/>
                </g>
            </g>
        </g>
    </g>
</svg>
