<?xml version="1.0" encoding="UTF-8" standalone="no"?>
<!DOCTYPE svg PUBLIC "-//W3C//DTD SVG 1.1//EN" "http://www.w3.org/Graphics/SVG/1.1/DTD/svg11.dtd">
<svg width="100%" height="100%" viewBox="0 0 1280 1280" version="1.1" xmlns="http://www.w3.org/2000/svg" xmlns:xlink="http://www.w3.org/1999/xlink" xml:space="preserve" xmlns:serif="http://www.serif.com/" style="fill-rule:evenodd;clip-rule:evenodd;stroke-linejoin:round;stroke-miterlimit:2;">
    <g transform="matrix(14.8971,0,0,14.8971,303.803,158.921)">
        <g transform="matrix(0.0671273,0,0,0.0671273,-20.3935,-13.6652)">
            <path d="M1200.19,684.65C1200.19,375.262 949.38,124.453 639.992,124.453C639.992,124.453 639.992,124.453 639.992,124.453C330.604,124.453 79.795,375.262 79.795,684.65C79.795,684.65 79.795,684.65 79.795,684.65C79.795,994.038 330.604,1244.85 639.992,1244.85C639.992,1244.85 639.992,1244.85 639.992,1244.85C949.38,1244.85 1200.19,994.038 1200.19,684.65L1200.19,684.65Z"/>
        </g>
        <g id="icon" transform="matrix(0.0651607,0,0,0.0651607,22.568,32.2935)">
            <g transform="matrix(1,0,0,1,-512,-512)">
                <g id="Neutral--ohne-Hintergrund-" serif:id="Neutral-(ohne-Hintergrund)">
                    <path id="Shape" d="M367.823,688.794L203,730L238.225,589.101C203.339,543.145 183,487.913 183,428.5C183,268.614 330.298,139 512,139C693.702,139 841,268.614 841,428.5C841,588.386 693.702,718 512,718C460.287,718 411.361,707.501 367.823,688.794ZM418.667,404.468L415,404.468C406.716,404.468 400,411.184 400,419.468L400,551C400,559.284 406.716,566 415,566L609,566C617.284,566 624,559.284 624,551L624,419.468C624,411.184 617.284,404.468 609,404.468L605.333,404.468L605.333,367.191C605.333,315.77 563.576,274 511.956,274C460.424,274 418.667,315.77 418.667,367.191L418.667,404.468ZM568,404.468L456,404.468L456,367.198C456,336.345 481.054,311.277 511.974,311.277C542.946,311.277 568,336.345 568,367.198L568,404.468Z" style="fill:white;"/>
                    <path id="Dots" d="M567.951,847.99C567.951,878.94 542.908,904 511.949,904C481.043,904 456,878.94 456,847.99C456,817.099 481.043,792 511.949,792C542.908,792 567.951,817.099 567.951,847.99ZM366,847.99C366,878.94 340.957,904 309.998,904C279.092,904 254.049,878.94 254.049,847.99C254.049,817.099 279.092,792 309.998,792C340.957,792 366,817.099 366,847.99ZM769.902,847.99C769.902,878.94 744.859,904 713.901,904C682.995,904 657.951,878.94 657.951,847.99C657.951,817.099 682.995,792 713.901,792C744.859,792 769.902,817.099 769.902,847.99Z" style="fill:rgb(63,230,105);"/>
                </g>
            </g>
        </g>
    </g>
</svg>
