<?xml version="1.0" encoding="UTF-8" standalone="no"?>
<!DOCTYPE svg PUBLIC "-//W3C//DTD SVG 1.1//EN" "http://www.w3.org/Graphics/SVG/1.1/DTD/svg11.dtd">
<svg width="100%" height="100%" viewBox="0 0 1280 1280" version="1.1" xmlns="http://www.w3.org/2000/svg" xmlns:xlink="http://www.w3.org/1999/xlink" xml:space="preserve" xmlns:serif="http://www.serif.com/" style="fill-rule:evenodd;clip-rule:evenodd;stroke-linejoin:round;stroke-miterlimit:2;">
    <g transform="matrix(14.8971,0,0,14.8971,303.803,158.921)">
        <g id="a" transform="matrix(0.292671,0,0,0.292671,-53.8534,-67.5196)">
            <path d="M155.503,222.799C142.863,222.799 132.628,233.045 132.628,245.671L132.628,456.901C132.628,457.702 132.674,458.509 132.751,459.289C141.251,456.122 150.275,452.66 159.805,448.853C226.141,422.373 280.374,399.859 280.423,374.438C280.423,373.624 280.367,372.802 280.251,371.98C276.821,346.882 216.844,339.101 216.927,327.599C216.934,326.988 217.107,326.349 217.475,325.71C224.68,313.091 253.218,313.695 263.728,312.803C274.247,311.89 298.934,312.079 300.127,304.559C300.162,304.327 300.184,304.096 300.184,303.864C300.212,296.877 283.207,294.138 283.207,294.138C283.207,294.138 303.842,297.221 303.786,305.248C303.786,305.641 303.738,306.048 303.628,306.462C301.406,315.086 283.249,316.708 271.242,317.297C259.886,317.866 242.594,319.158 242.535,324.705C242.528,325.028 242.584,325.365 242.7,325.709C245.41,333.819 308.79,337.724 349.34,358.77C372.675,370.869 384.28,391.192 389.603,412.188L389.603,245.668C389.603,233.042 379.36,222.796 366.734,222.796L155.503,222.796L155.503,222.799Z" style="fill:rgb(132,0,16);fill-rule:nonzero;"/>
        </g>
    </g>
</svg>
