<?xml version="1.0" encoding="UTF-8" standalone="no"?>
<!DOCTYPE svg PUBLIC "-//W3C//DTD SVG 1.1//EN" "http://www.w3.org/Graphics/SVG/1.1/DTD/svg11.dtd">
<svg width="100%" height="100%" viewBox="0 0 1280 1280" version="1.1" xmlns="http://www.w3.org/2000/svg" xmlns:xlink="http://www.w3.org/1999/xlink" xml:space="preserve" xmlns:serif="http://www.serif.com/" style="fill-rule:evenodd;clip-rule:evenodd;stroke-linejoin:round;stroke-miterlimit:2;">
    <g transform="matrix(29.2037,0,0,29.0584,115,110.928)">
        <path d="M17.977,36.274C8.046,36.274 0,28.188 0,18.207C0,8.226 8.046,0.14 17.977,0.14C27.909,0.14 35.954,8.226 35.954,18.207C35.954,28.188 27.909,36.274 17.977,36.274Z" style="fill:rgb(21,119,254);fill-rule:nonzero;"/>
        <path d="M35.724,18.473C35.611,27.265 29.253,34.539 20.902,36.024L8.559,27.948L17.734,20.729L8.559,12.616L8.559,8.439L26.921,8.439L35.724,18.234L35.724,18.473Z" style="fill:rgb(17,108,233);fill-opacity:0.7;"/>
        <rect x="3.995" y="3.886" width="28.041" height="29.302" style="fill:none;"/>
        <path d="M26.883,28.001L8.521,27.988L8.495,23.838L20.006,12.603L8.521,12.603L8.521,8.413L26.883,8.413L26.883,12.603L15.465,23.838L26.883,23.838L26.883,28.001Z" style="fill:url(#_Linear1);fill-rule:nonzero;"/>
    </g>
    <defs>
        <linearGradient id="_Linear1" x1="0" y1="0" x2="1" y2="0" gradientUnits="userSpaceOnUse" gradientTransform="matrix(1.19908e-15,19.5825,-19.5825,1.19908e-15,17.694,8.41434)"><stop offset="0" style="stop-color:white;stop-opacity:1"/><stop offset="0.57" style="stop-color:rgb(251,251,251);stop-opacity:1"/><stop offset="0.9" style="stop-color:rgb(241,241,241);stop-opacity:1"/><stop offset="1" style="stop-color:rgb(237,237,237);stop-opacity:1"/></linearGradient>
    </defs>
</svg>
