<?xml version="1.0" encoding="UTF-8" standalone="no"?>
<!DOCTYPE svg PUBLIC "-//W3C//DTD SVG 1.1//EN" "http://www.w3.org/Graphics/SVG/1.1/DTD/svg11.dtd">
<svg width="100%" height="100%" viewBox="0 0 1280 1280" version="1.1" xmlns="http://www.w3.org/2000/svg" xmlns:xlink="http://www.w3.org/1999/xlink" xml:space="preserve" xmlns:serif="http://www.serif.com/" style="fill-rule:evenodd;clip-rule:evenodd;stroke-linecap:round;stroke-linejoin:round;stroke-miterlimit:1.5;">
    <g transform="matrix(0.402703,0,0,0.402703,79.0351,153.938)">
        <rect x="505" y="319" width="222" height="222" style="stroke:white;stroke-width:4.97px;"/>
    </g>
    <g transform="matrix(0.402703,0,0,0.402703,79.0351,422.138)">
        <rect x="505" y="319" width="222" height="222" style="stroke:white;stroke-width:4.97px;"/>
    </g>
    <g transform="matrix(0.402703,0,0,0.402703,-10.3649,422.138)">
        <rect x="505" y="319" width="222" height="222" style="stroke:white;stroke-width:4.97px;"/>
    </g>
    <g transform="matrix(0.402703,0,0,0.402703,436.635,153.938)">
        <rect x="505" y="319" width="222" height="222" style="stroke:white;stroke-width:4.97px;"/>
    </g>
    <g transform="matrix(0.402703,0,0,0.402703,436.635,422.138)">
        <rect x="505" y="319" width="222" height="222" style="stroke:white;stroke-width:4.97px;"/>
    </g>
    <g transform="matrix(0.402703,0,0,0.402703,257.835,153.938)">
        <rect x="505" y="319" width="222" height="222" style="stroke:white;stroke-width:4.97px;"/>
    </g>
    <g transform="matrix(0.402703,0,0,0.402703,615.435,153.938)">
        <rect x="505" y="319" width="222" height="222" style="stroke:white;stroke-width:4.97px;"/>
    </g>
    <g transform="matrix(0.402703,0,0,0.402703,615.435,422.138)">
        <rect x="505" y="319" width="222" height="222" style="stroke:white;stroke-width:4.97px;"/>
    </g>
    <g transform="matrix(0.402703,0,0,0.402703,168.435,153.938)">
        <rect x="505" y="319" width="222" height="222" style="stroke:white;stroke-width:4.97px;"/>
    </g>
    <g transform="matrix(0.402703,0,0,0.402703,168.435,422.138)">
        <rect x="505" y="319" width="222" height="222" style="stroke:white;stroke-width:4.97px;"/>
    </g>
    <g transform="matrix(0.402703,0,0,0.402703,526.035,153.938)">
        <rect x="505" y="319" width="222" height="222" style="stroke:white;stroke-width:4.97px;"/>
    </g>
    <g transform="matrix(0.402703,0,0,0.402703,347.235,153.938)">
        <rect x="505" y="319" width="222" height="222" style="stroke:white;stroke-width:4.97px;"/>
    </g>
    <g transform="matrix(0.402703,0,0,0.402703,347.235,422.138)">
        <rect x="505" y="319" width="222" height="222" style="stroke:white;stroke-width:4.97px;"/>
    </g>
    <g transform="matrix(0.402703,0,0,0.402703,704.835,153.938)">
        <rect x="505" y="319" width="222" height="222" style="stroke:white;stroke-width:4.97px;"/>
    </g>
    <g transform="matrix(0.402703,0,0,0.402703,704.835,422.138)">
        <rect x="505" y="319" width="222" height="222" style="stroke:white;stroke-width:4.97px;"/>
    </g>
    <g transform="matrix(0.402703,0,0,0.402703,79.0351,243.338)">
        <rect x="505" y="319" width="222" height="222" style="stroke:white;stroke-width:4.97px;"/>
    </g>
    <g transform="matrix(0.402703,0,0,0.402703,-10.3649,243.338)">
        <rect x="505" y="319" width="222" height="222" style="stroke:white;stroke-width:4.97px;"/>
    </g>
    <g transform="matrix(0.402703,0,0,0.402703,79.0351,511.538)">
        <rect x="505" y="319" width="222" height="222" style="stroke:white;stroke-width:4.97px;"/>
    </g>
    <g transform="matrix(0.402703,0,0,0.402703,-10.3649,511.538)">
        <rect x="505" y="319" width="222" height="222" style="stroke:white;stroke-width:4.97px;"/>
    </g>
    <g transform="matrix(0.402703,0,0,0.402703,257.835,243.338)">
        <rect x="505" y="319" width="222" height="222" style="stroke:white;stroke-width:4.97px;"/>
    </g>
    <g transform="matrix(0.402703,0,0,0.402703,615.435,243.338)">
        <rect x="505" y="319" width="222" height="222" style="stroke:white;stroke-width:4.97px;"/>
    </g>
    <g transform="matrix(0.402703,0,0,0.402703,615.435,511.538)">
        <rect x="505" y="319" width="222" height="222" style="stroke:white;stroke-width:4.97px;"/>
    </g>
    <g transform="matrix(0.402703,0,0,0.402703,168.435,243.338)">
        <rect x="505" y="319" width="222" height="222" style="stroke:white;stroke-width:4.97px;"/>
    </g>
    <g transform="matrix(0.402703,0,0,0.402703,168.435,511.538)">
        <rect x="505" y="319" width="222" height="222" style="stroke:white;stroke-width:4.97px;"/>
    </g>
    <g transform="matrix(0.402703,0,0,0.402703,526.035,243.338)">
        <rect x="505" y="319" width="222" height="222" style="stroke:white;stroke-width:4.97px;"/>
    </g>
    <g transform="matrix(0.402703,0,0,0.402703,704.835,243.338)">
        <rect x="505" y="319" width="222" height="222" style="stroke:white;stroke-width:4.97px;"/>
    </g>
    <g transform="matrix(0.402703,0,0,0.402703,704.835,511.538)">
        <rect x="505" y="319" width="222" height="222" style="stroke:white;stroke-width:4.97px;"/>
    </g>
    <g transform="matrix(0.402703,0,0,0.402703,79.0351,332.738)">
        <rect x="505" y="319" width="222" height="222" style="stroke:white;stroke-width:4.97px;"/>
    </g>
    <g transform="matrix(0.402703,0,0,0.402703,-10.3649,332.738)">
        <rect x="505" y="319" width="222" height="222" style="stroke:white;stroke-width:4.97px;"/>
    </g>
    <g transform="matrix(0.402703,0,0,0.402703,79.0351,600.938)">
        <rect x="505" y="319" width="222" height="222" style="stroke:white;stroke-width:4.97px;"/>
    </g>
    <g transform="matrix(0.402703,0,0,0.402703,-10.3649,600.938)">
        <rect x="505" y="319" width="222" height="222" style="stroke:white;stroke-width:4.97px;"/>
    </g>
    <g transform="matrix(0.402703,0,0,0.402703,436.635,332.738)">
        <rect x="505" y="319" width="222" height="222" style="stroke:white;stroke-width:4.97px;"/>
    </g>
    <g transform="matrix(0.402703,0,0,0.402703,615.435,332.738)">
        <rect x="505" y="319" width="222" height="222" style="stroke:white;stroke-width:4.97px;"/>
    </g>
    <g transform="matrix(0.402703,0,0,0.402703,615.435,600.938)">
        <rect x="505" y="319" width="222" height="222" style="stroke:white;stroke-width:4.97px;"/>
    </g>
    <g transform="matrix(0.402703,0,0,0.402703,168.435,332.738)">
        <rect x="505" y="319" width="222" height="222" style="stroke:white;stroke-width:4.97px;"/>
    </g>
    <g transform="matrix(0.402703,0,0,0.402703,168.435,600.938)">
        <rect x="505" y="319" width="222" height="222" style="stroke:white;stroke-width:4.97px;"/>
    </g>
    <g transform="matrix(0.402703,0,0,0.402703,347.235,332.738)">
        <rect x="505" y="319" width="222" height="222" style="stroke:white;stroke-width:4.97px;"/>
    </g>
    <g transform="matrix(0.402703,0,0,0.402703,704.835,332.738)">
        <rect x="505" y="319" width="222" height="222" style="stroke:white;stroke-width:4.97px;"/>
    </g>
    <g transform="matrix(0.402703,0,0,0.402703,704.835,600.938)">
        <rect x="505" y="319" width="222" height="222" style="stroke:white;stroke-width:4.97px;"/>
    </g>
    <g transform="matrix(0.402703,0,0,0.402703,79.0351,690.338)">
        <rect x="505" y="319" width="222" height="222" style="stroke:white;stroke-width:4.97px;"/>
    </g>
    <g transform="matrix(0.402703,0,0,0.402703,-10.3649,690.338)">
        <rect x="505" y="319" width="222" height="222" style="stroke:white;stroke-width:4.97px;"/>
    </g>
    <g transform="matrix(0.402703,0,0,0.402703,615.435,690.338)">
        <rect x="505" y="319" width="222" height="222" style="stroke:white;stroke-width:4.97px;"/>
    </g>
    <g transform="matrix(0.402703,0,0,0.402703,168.435,690.338)">
        <rect x="505" y="319" width="222" height="222" style="stroke:white;stroke-width:4.97px;"/>
    </g>
    <g transform="matrix(0.402703,0,0,0.402703,704.835,690.338)">
        <rect x="505" y="319" width="222" height="222" style="stroke:white;stroke-width:4.97px;"/>
    </g>
    <g transform="matrix(0.402703,0,0,0.402703,79.0351,779.738)">
        <rect x="505" y="319" width="222" height="222" style="stroke:white;stroke-width:4.97px;"/>
    </g>
    <g transform="matrix(0.402703,0,0,0.402703,436.635,779.738)">
        <rect x="505" y="319" width="222" height="222" style="stroke:white;stroke-width:4.97px;"/>
    </g>
    <g transform="matrix(0.402703,0,0,0.402703,257.835,779.738)">
        <rect x="505" y="319" width="222" height="222" style="stroke:white;stroke-width:4.97px;"/>
    </g>
    <g transform="matrix(0.402703,0,0,0.402703,615.435,779.738)">
        <rect x="505" y="319" width="222" height="222" style="stroke:white;stroke-width:4.97px;"/>
    </g>
    <g transform="matrix(0.402703,0,0,0.402703,168.435,779.738)">
        <rect x="505" y="319" width="222" height="222" style="stroke:white;stroke-width:4.97px;"/>
    </g>
    <g transform="matrix(0.402703,0,0,0.402703,526.035,779.738)">
        <rect x="505" y="319" width="222" height="222" style="stroke:white;stroke-width:4.97px;"/>
    </g>
    <g transform="matrix(0.402703,0,0,0.402703,347.235,779.738)">
        <rect x="505" y="319" width="222" height="222" style="stroke:white;stroke-width:4.97px;"/>
    </g>
    <g transform="matrix(0.402703,0,0,0.402703,704.835,779.738)">
        <rect x="505" y="319" width="222" height="222" style="stroke:white;stroke-width:4.97px;"/>
    </g>
    <g transform="matrix(0.402703,0,0,0.402703,794.235,422.138)">
        <rect x="505" y="319" width="222" height="222" style="stroke:white;stroke-width:4.97px;"/>
    </g>
    <g transform="matrix(0.402703,0,0,0.402703,794.235,243.338)">
        <rect x="505" y="319" width="222" height="222" style="stroke:white;stroke-width:4.97px;"/>
    </g>
    <g transform="matrix(0.402703,0,0,0.402703,794.235,511.538)">
        <rect x="505" y="319" width="222" height="222" style="stroke:white;stroke-width:4.97px;"/>
    </g>
    <g transform="matrix(0.402703,0,0,0.402703,794.235,332.738)">
        <rect x="505" y="319" width="222" height="222" style="stroke:white;stroke-width:4.97px;"/>
    </g>
    <g transform="matrix(0.402703,0,0,0.402703,794.235,600.938)">
        <rect x="505" y="319" width="222" height="222" style="stroke:white;stroke-width:4.97px;"/>
    </g>
    <g transform="matrix(0.402703,0,0,0.402703,794.235,690.338)">
        <rect x="505" y="319" width="222" height="222" style="stroke:white;stroke-width:4.97px;"/>
    </g>
    <g transform="matrix(1.26599e-17,-0.402703,0.402703,1.26599e-17,422.138,485.765)">
        <rect x="505" y="319" width="222" height="222" style="stroke:white;stroke-width:4.97px;"/>
    </g>
    <g transform="matrix(1.26599e-17,-0.402703,0.402703,1.26599e-17,243.338,485.765)">
        <rect x="505" y="319" width="222" height="222" style="stroke:white;stroke-width:4.97px;"/>
    </g>
    <g transform="matrix(1.26599e-17,-0.402703,0.402703,1.26599e-17,511.538,485.765)">
        <rect x="505" y="319" width="222" height="222" style="stroke:white;stroke-width:4.97px;"/>
    </g>
    <g transform="matrix(1.26599e-17,-0.402703,0.402703,1.26599e-17,332.738,485.765)">
        <rect x="505" y="319" width="222" height="222" style="stroke:white;stroke-width:4.97px;"/>
    </g>
    <g transform="matrix(1.26599e-17,-0.402703,0.402703,1.26599e-17,600.938,485.765)">
        <rect x="505" y="319" width="222" height="222" style="stroke:white;stroke-width:4.97px;"/>
    </g>
    <g transform="matrix(1.26599e-17,-0.402703,0.402703,1.26599e-17,690.338,485.765)">
        <rect x="505" y="319" width="222" height="222" style="stroke:white;stroke-width:4.97px;"/>
    </g>
    <g transform="matrix(-7.39753e-17,0.402703,-0.402703,-7.39753e-17,857.862,794.235)">
        <rect x="505" y="319" width="222" height="222" style="stroke:white;stroke-width:4.97px;"/>
    </g>
    <g transform="matrix(-7.39753e-17,0.402703,-0.402703,-7.39753e-17,1036.66,794.235)">
        <rect x="505" y="319" width="222" height="222" style="stroke:white;stroke-width:4.97px;"/>
    </g>
    <g transform="matrix(-7.39753e-17,0.402703,-0.402703,-7.39753e-17,768.462,794.235)">
        <rect x="505" y="319" width="222" height="222" style="stroke:white;stroke-width:4.97px;"/>
    </g>
    <g transform="matrix(-7.39753e-17,0.402703,-0.402703,-7.39753e-17,947.262,794.235)">
        <rect x="505" y="319" width="222" height="222" style="stroke:white;stroke-width:4.97px;"/>
    </g>
    <g transform="matrix(-7.39753e-17,0.402703,-0.402703,-7.39753e-17,679.062,794.235)">
        <rect x="505" y="319" width="222" height="222" style="stroke:white;stroke-width:4.97px;"/>
    </g>
    <g transform="matrix(-7.39753e-17,0.402703,-0.402703,-7.39753e-17,589.662,794.235)">
        <rect x="505" y="319" width="222" height="222" style="stroke:white;stroke-width:4.97px;"/>
    </g>
    <g transform="matrix(0.402703,0,0,0.402703,257.835,422.138)">
        <rect x="505" y="319" width="222" height="222" style="fill:rgb(236,240,241);stroke:white;stroke-width:4.97px;"/>
    </g>
    <g transform="matrix(0.402703,0,0,0.402703,526.035,422.138)">
        <rect x="505" y="319" width="222" height="222" style="fill:rgb(236,240,241);stroke:white;stroke-width:4.97px;"/>
    </g>
    <g transform="matrix(0.402703,0,0,0.402703,436.635,243.338)">
        <rect x="505" y="319" width="222" height="222" style="fill:rgb(236,240,241);stroke:white;stroke-width:4.97px;"/>
    </g>
    <g transform="matrix(0.402703,0,0,0.402703,347.235,243.338)">
        <rect x="505" y="319" width="222" height="222" style="fill:rgb(236,240,241);stroke:white;stroke-width:4.97px;"/>
    </g>
    <g transform="matrix(0.402703,0,0,0.402703,257.835,332.738)">
        <rect x="505" y="319" width="222" height="222" style="fill:rgb(236,240,241);stroke:white;stroke-width:4.97px;"/>
    </g>
    <g transform="matrix(0.402703,0,0,0.402703,526.035,332.738)">
        <rect x="505" y="319" width="222" height="222" style="fill:rgb(236,240,241);stroke:white;stroke-width:4.97px;"/>
    </g>
    <g transform="matrix(0.201351,0,0,0.201351,404.218,352.269)">
        <rect x="505" y="319" width="222" height="222" style="fill:rgb(236,240,241);stroke:white;stroke-width:9.93px;"/>
    </g>
    <g transform="matrix(0.201351,0,0,0.201351,627.718,352.269)">
        <rect x="505" y="319" width="222" height="222" style="fill:rgb(236,240,241);stroke:white;stroke-width:9.93px;"/>
    </g>
    <g transform="matrix(0.201351,0,0,0.201351,583.018,396.969)">
        <rect x="505" y="319" width="222" height="222" style="fill:rgb(236,240,241);stroke:white;stroke-width:9.93px;"/>
    </g>
    <g transform="matrix(0.201351,0,0,0.201351,448.918,396.969)">
        <rect x="505" y="319" width="222" height="222" style="fill:rgb(236,240,241);stroke:white;stroke-width:9.93px;"/>
    </g>
    <g transform="matrix(1.82449,0,0,1.82449,-527.673,-129.935)">
        <rect x="517.5" y="422" width="73.5" height="49" style="fill:rgb(241,196,15);stroke:white;stroke-width:1.1px;"/>
    </g>
    <g transform="matrix(1.82449,0,0,1.82449,-527.673,-129.935)">
        <rect x="689" y="422" width="73.5" height="49" style="fill:rgb(241,196,15);stroke:white;stroke-width:1.1px;"/>
    </g>
    <g transform="matrix(1.82449,0,0,1.82449,-527.673,-129.935)">
        <rect x="517.5" y="471" width="73.5" height="49" style="fill:rgb(241,196,15);stroke:white;stroke-width:1.1px;"/>
    </g>
    <g transform="matrix(1.82449,0,0,1.82449,-527.673,-129.935)">
        <rect x="689" y="471" width="73.5" height="49" style="fill:rgb(241,196,15);stroke:white;stroke-width:1.1px;"/>
    </g>
    <g transform="matrix(0.402703,0,0,0.402703,436.635,511.538)">
        <rect x="505" y="319" width="222" height="222" style="fill:rgb(241,196,15);stroke:white;stroke-width:4.97px;"/>
    </g>
    <g transform="matrix(0.402703,0,0,0.402703,347.235,600.938)">
        <rect x="505" y="319" width="222" height="222" style="fill:rgb(241,196,15);stroke:white;stroke-width:4.97px;"/>
    </g>
    <g transform="matrix(0.402703,0,0,0.402703,436.635,690.338)">
        <rect x="505" y="319" width="222" height="222" style="fill:rgb(241,196,15);stroke:white;stroke-width:4.97px;"/>
    </g>
    <g transform="matrix(1.82449,0,0,1.82449,-527.673,-129.935)">
        <rect x="517.5" y="520" width="73.5" height="49" style="fill:rgb(241,196,15);stroke:white;stroke-width:1.1px;"/>
    </g>
    <g transform="matrix(1.82449,0,0,1.82449,-527.673,-129.935)">
        <rect x="689" y="520" width="73.5" height="49" style="fill:rgb(241,196,15);stroke:white;stroke-width:1.1px;"/>
    </g>
    <g transform="matrix(0.402703,0,0,0.402703,347.235,690.338)">
        <rect x="505" y="319" width="222" height="222" style="fill:rgb(241,196,15);stroke:white;stroke-width:4.97px;"/>
    </g>
    <g transform="matrix(0.402703,0,0,0.402703,347.235,511.538)">
        <rect x="505" y="319" width="222" height="222" style="fill:rgb(241,196,15);stroke:white;stroke-width:4.97px;"/>
    </g>
    <g transform="matrix(0.402703,0,0,0.402703,436.635,600.938)">
        <rect x="505" y="319" width="222" height="222" style="fill:rgb(241,196,15);stroke:white;stroke-width:4.97px;"/>
    </g>
</svg>
